<svg xmlns="http://www.w3.org/2000/svg" width="10" height="16" viewBox="0 0 10 16" fill="none"><path d="M5.71912 15.5002L6.21911 15.5002V15.0002V9.11416H7.86267H8.30233L8.35856 8.67811L8.67948 6.18935L8.7522 5.6254H8.18359H6.21911V4.53641C6.21911 4.19755 6.27241 4.0518 6.33082 3.98242C6.373 3.93233 6.50252 3.82478 6.95257 3.82478H6.9528L8.27069 3.82417L8.77046 3.82394V3.32417V1.09827V0.660156L8.33615 0.602599C8.08337 0.5691 7.27893 0.500305 6.35007 0.500305C5.29855 0.500305 4.36133 0.822909 3.68556 1.49082C3.00825 2.16027 2.6491 3.1217 2.6491 4.29005V5.62547H1H0.5V6.12547V8.61423V9.11423H1H2.64903V15.0003V15.5003L3.14905 15.5003L5.71912 15.5002Z" stroke="white"></path></svg>