<svg xmlns="http://www.w3.org/2000/svg" width="14" height="17" viewBox="0 0 14 17" fill="none"><path d="M6.17866 11.5152C6.27245 11.5786 6.37058 11.6365 6.4713 11.6886C6.89513 11.9076 7.40574 12.0447 7.93506 12.0447C10.9519 12.0447 12.9957 9.28294 12.9957 6.07642C12.9957 2.86394 10.367 0.500305 7.07671 0.500305C5.06306 0.500305 3.4785 1.17883 2.39643 2.26739C1.31816 3.35213 0.770508 4.81256 0.770508 6.3206C0.770508 7.0465 0.961484 7.84513 1.30211 8.53592C1.63969 9.22052 2.15376 9.85679 2.84191 10.1773M6.17866 11.5152L2.84091 10.1768C2.84124 10.177 2.84157 10.1771 2.84191 10.1773M6.17866 11.5152L6.16911 11.5514C6.04565 12.0204 5.90836 12.5413 5.8535 12.747C5.62711 13.6232 5.01146 14.6914 4.65485 15.2645L4.45157 15.5911L4.08375 15.4783C3.89245 15.4197 3.70971 15.3495 3.54356 15.2857C3.53184 15.2812 3.5202 15.2767 3.50864 15.2723L3.22538 15.1636L3.19094 14.8622C3.11242 14.1752 3.0161 12.9637 3.22029 12.0807L3.22057 12.0796C3.29113 11.7777 3.49877 10.8977 3.7093 10.0062C3.6481 10.0913 3.55997 10.1713 3.43269 10.2214C3.1827 10.3198 2.95194 10.229 2.84191 10.1773M6.17866 11.5152L2.84191 10.1773M4.21431 7.86896C4.18759 7.79887 4.15665 7.70967 4.12607 7.60363C4.04986 7.3394 3.97452 6.966 3.97452 6.52039C3.97452 5.16296 4.7848 3.88684 6.06543 3.88684C6.57806 3.88684 7.00283 4.08558 7.28961 4.43566C7.56538 4.7723 7.67784 5.204 7.67784 5.62504C7.67784 6.08503 7.53569 6.6214 7.38669 7.12233C7.34115 7.27543 7.29441 7.42694 7.24806 7.57719C7.13401 7.94689 7.02234 8.3089 6.93678 8.66794L4.21431 7.86896ZM4.21431 7.86896L4.21413 7.86972L4.1133 8.29628L4.08857 8.40093C4.06407 8.26773 4.004 8.13982 3.908 8.03295C3.63075 7.68804 3.37622 7.00225 3.37622 6.35513C3.37622 4.67061 4.64142 3.03942 6.84486 3.03942C7.80971 3.03942 8.59804 3.3659 9.14269 3.89604C9.68634 4.4252 10.0175 5.18644 10.0175 6.11588C10.0175 7.22555 9.73664 8.12585 9.31166 8.73372C8.89041 9.33626 8.34056 9.64125 7.75254 9.64125C7.17564 9.64125 6.81207 9.19516 6.93676 8.66801L4.21431 7.86896Z" stroke="white"></path></svg>